{
  "accessors": [
    {
      "bufferView": 0,
      "byteOffset": 0,
      "componentType": 5126,
      "normalized": false,
      "count": 13501,
      "type": "VEC3",
      "max": [
        506.01043701171875,
        10.519536018371582,
        506.0281982421875
      ],
      "min": [
        -505.2997741699219,
        1.0431736707687378,
        -501.95062255859375
      ]
    },
    {
      "bufferView": 1,
      "byteOffset": 0,
      "componentType": 5126,
      "normalized": false,
      "count": 13501,
      "type": "VEC3"
    },
    {
      "bufferView": 2,
      "byteOffset": 0,
      "componentType": 5126,
      "normalized": false,
      "count": 13501,
      "type": "VEC2"
    },
    {
      "bufferView": 3,
      "byteOffset": 0,
      "componentType": 5125,
      "normalized": false,
      "count": 13478,
      "type": "SCALAR"
    },
    {
      "bufferView": 4,
      "byteOffset": 0,
      "componentType": 5126,
      "normalized": false,
      "count": 35586,
      "type": "VEC3",
      "max": [
        660.6072387695312,
        10.519536018371582,
        879.328369140625
      ],
      "min": [
        -785.1038208007812,
        0.44317370653152466,
        -797.1951904296875
      ]
    },
    {
      "bufferView": 5,
      "byteOffset": 0,
      "componentType": 5126,
      "normalized": false,
      "count": 35586,
      "type": "VEC3"
    },
    {
      "bufferView": 6,
      "byteOffset": 0,
      "componentType": 5126,
      "normalized": false,
      "count": 35586,
      "type": "VEC2"
    },
    {
      "bufferView": 7,
      "byteOffset": 0,
      "componentType": 5125,
      "normalized": false,
      "count": 35432,
      "type": "SCALAR"
    },
    {
      "bufferView": 8,
      "byteOffset": 0,
      "componentType": 5126,
      "normalized": false,
      "count": 25704,
      "type": "VEC3",
      "max": [
        110.44947052001953,
        17.222427368164062,
        300.71392822265625
      ],
      "min": [
        -410.74261474609375,
        7.598358154296875,
        -436.89599609375
      ]
    },
    {
      "bufferView": 9,
      "byteOffset": 0,
      "componentType": 5126,
      "normalized": false,
      "count": 25704,
      "type": "VEC3"
    },
    {
      "bufferView": 10,
      "byteOffset": 0,
      "componentType": 5126,
      "normalized": false,
      "count": 25704,
      "type": "VEC2"
    },
    {
      "bufferView": 11,
      "byteOffset": 0,
      "componentType": 5125,
      "normalized": false,
      "count": 25560,
      "type": "SCALAR"
    },
    {
      "bufferView": 12,
      "byteOffset": 0,
      "componentType": 5126,
      "normalized": false,
      "count": 4632,
      "type": "VEC3",
      "max": [
        110.44945526123047,
        16.412425994873047,
        309.8755798339844
      ],
      "min": [
        -419.479248046875,
        7.403925895690918,
        -446.1698303222656
      ]
    },
    {
      "bufferView": 13,
      "byteOffset": 0,
      "componentType": 5126,
      "normalized": false,
      "count": 4632,
      "type": "VEC3"
    },
    {
      "bufferView": 14,
      "byteOffset": 0,
      "componentType": 5126,
      "normalized": false,
      "count": 4632,
      "type": "VEC2"
    },
    {
      "bufferView": 15,
      "byteOffset": 0,
      "componentType": 5125,
      "normalized": false,
      "count": 4570,
      "type": "SCALAR"
    },
    {
      "bufferView": 16,
      "byteOffset": 0,
      "componentType": 5126,
      "normalized": false,
      "count": 9136,
      "type": "VEC3",
      "max": [
        110.44945526123047,
        16.412425994873047,
        309.8755798339844
      ],
      "min": [
        -419.479248046875,
        6.203925609588623,
        -446.1698303222656
      ]
    },
    {
      "bufferView": 17,
      "byteOffset": 0,
      "componentType": 5126,
      "normalized": false,
      "count": 9136,
      "type": "VEC3"
    },
    {
      "bufferView": 18,
      "byteOffset": 0,
      "componentType": 5126,
      "normalized": false,
      "count": 9136,
      "type": "VEC2"
    },
    {
      "bufferView": 19,
      "byteOffset": 0,
      "componentType": 5125,
      "normalized": false,
      "count": 9094,
      "type": "SCALAR"
    },
    {
      "bufferView": 20,
      "byteOffset": 0,
      "componentType": 5126,
      "normalized": false,
      "count": 4632,
      "type": "VEC3",
      "max": [
        110.44943237304688,
        15.212427139282227,
        309.8755187988281
      ],
      "min": [
        -419.47918701171875,
        6.203925609588623,
        -446.16973876953125
      ]
    },
    {
      "bufferView": 21,
      "byteOffset": 0,
      "componentType": 5126,
      "normalized": false,
      "count": 4632,
      "type": "VEC3"
    },
    {
      "bufferView": 22,
      "byteOffset": 0,
      "componentType": 5126,
      "normalized": false,
      "count": 4632,
      "type": "VEC2"
    },
    {
      "bufferView": 23,
      "byteOffset": 0,
      "componentType": 5125,
      "normalized": false,
      "count": 4570,
      "type": "SCALAR"
    },
    {
      "bufferView": 24,
      "byteOffset": 0,
      "componentType": 5126,
      "normalized": false,
      "count": 15484,
      "type": "VEC3",
      "max": [
        562.0636596679688,
        16.432479858398438,
        535.8717041015625
      ],
      "min": [
        -581.9581298828125,
        1.0632458925247192,
        -526.8176879882812
      ]
    },
    {
      "bufferView": 25,
      "byteOffset": 0,
      "componentType": 5126,
      "normalized": false,
      "count": 15484,
      "type": "VEC3"
    },
    {
      "bufferView": 26,
      "byteOffset": 0,
      "componentType": 5126,
      "normalized": false,
      "count": 15484,
      "type": "VEC2"
    },
    {
      "bufferView": 27,
      "byteOffset": 0,
      "componentType": 5125,
      "normalized": false,
      "count": 14628,
      "type": "SCALAR"
    },
    {
      "bufferView": 28,
      "byteOffset": 0,
      "componentType": 5126,
      "normalized": false,
      "count": 6112,
      "type": "VEC3",
      "max": [
        512.9246826171875,
        10.553729057312012,
        532.7930908203125
      ],
      "min": [
        -580.7740478515625,
        1.3632197380065918,
        -526.1618041992188
      ]
    },
    {
      "bufferView": 29,
      "byteOffset": 0,
      "componentType": 5126,
      "normalized": false,
      "count": 6112,
      "type": "VEC3"
    },
    {
      "bufferView": 30,
      "byteOffset": 0,
      "componentType": 5126,
      "normalized": false,
      "count": 6112,
      "type": "VEC2"
    },
    {
      "bufferView": 31,
      "byteOffset": 0,
      "componentType": 5125,
      "normalized": false,
      "count": 5708,
      "type": "SCALAR"
    },
    {
      "bufferView": 32,
      "byteOffset": 0,
      "componentType": 5126,
      "normalized": false,
      "count": 43837,
      "type": "VEC3",
      "max": [
        506.01043701171875,
        17.222427368164062,
        506.0281982421875
      ],
      "min": [
        -505.2997741699219,
        1.0431736707687378,
        -501.95062255859375
      ]
    },
    {
      "bufferView": 33,
      "byteOffset": 0,
      "componentType": 5126,
      "normalized": false,
      "count": 43837,
      "type": "VEC3"
    },
    {
      "bufferView": 34,
      "byteOffset": 0,
      "componentType": 5126,
      "normalized": false,
      "count": 43837,
      "type": "VEC2"
    },
    {
      "bufferView": 35,
      "byteOffset": 0,
      "componentType": 5125,
      "normalized": false,
      "count": 43608,
      "type": "SCALAR"
    }
  ],
  "asset": {
    "generator": "nycroads",
    "version": "2.0"
  },
  "bufferViews": [
    {
      "buffer": 0,
      "byteOffset": 0,
      "byteLength": 162012,
      "target": 34962
    },
    {
      "buffer": 0,
      "byteOffset": 162012,
      "byteLength": 162012,
      "target": 34962
    },
    {
      "buffer": 0,
      "byteOffset": 324024,
      "byteLength": 108008,
      "target": 34962
    },
    {
      "buffer": 0,
      "byteOffset": 432032,
      "byteLength": 161736,
      "target": 34963
    },
    {
      "buffer": 0,
      "byteOffset": 593768,
      "byteLength": 427032,
      "target": 34962
    },
    {
      "buffer": 0,
      "byteOffset": 1020800,
      "byteLength": 427032,
      "target": 34962
    },
    {
      "buffer": 0,
      "byteOffset": 1447832,
      "byteLength": 284688,
      "target": 34962
    },
    {
      "buffer": 0,
      "byteOffset": 1732520,
      "byteLength": 425184,
      "target": 34963
    },
    {
      "buffer": 0,
      "byteOffset": 2157704,
      "byteLength": 308448,
      "target": 34962
    },
    {
      "buffer": 0,
      "byteOffset": 2466152,
      "byteLength": 308448,
      "target": 34962
    },
    {
      "buffer": 0,
      "byteOffset": 2774600,
      "byteLength": 205632,
      "target": 34962
    },
    {
      "buffer": 0,
      "byteOffset": 2980232,
      "byteLength": 306720,
      "target": 34963
    },
    {
      "buffer": 0,
      "byteOffset": 3286952,
      "byteLength": 55584,
      "target": 34962
    },
    {
      "buffer": 0,
      "byteOffset": 3342536,
      "byteLength": 55584,
      "target": 34962
    },
    {
      "buffer": 0,
      "byteOffset": 3398120,
      "byteLength": 37056,
      "target": 34962
    },
    {
      "buffer": 0,
      "byteOffset": 3435176,
      "byteLength": 54840,
      "target": 34963
    },
    {
      "buffer": 0,
      "byteOffset": 3490016,
      "byteLength": 109632,
      "target": 34962
    },
    {
      "buffer": 0,
      "byteOffset": 3599648,
      "byteLength": 109632,
      "target": 34962
    },
    {
      "buffer": 0,
      "byteOffset": 3709280,
      "byteLength": 73088,
      "target": 34962
    },
    {
      "buffer": 0,
      "byteOffset": 3782368,
      "byteLength": 109128,
      "target": 34963
    },
    {
      "buffer": 0,
      "byteOffset": 3891496,
      "byteLength": 55584,
      "target": 34962
    },
    {
      "buffer": 0,
      "byteOffset": 3947080,
      "byteLength": 55584,
      "target": 34962
    },
    {
      "buffer": 0,
      "byteOffset": 4002664,
      "byteLength": 37056,
      "target": 34962
    },
    {
      "buffer": 0,
      "byteOffset": 4039720,
      "byteLength": 54840,
      "target": 34963
    },
    {
      "buffer": 0,
      "byteOffset": 4094560,
      "byteLength": 185808,
      "target": 34962
    },
    {
      "buffer": 0,
      "byteOffset": 4280368,
      "byteLength": 185808,
      "target": 34962
    },
    {
      "buffer": 0,
      "byteOffset": 4466176,
      "byteLength": 123872,
      "target": 34962
    },
    {
      "buffer": 0,
      "byteOffset": 4590048,
      "byteLength": 175536,
      "target": 34963
    },
    {
      "buffer": 0,
      "byteOffset": 4765584,
      "byteLength": 73344,
      "target": 34962
    },
    {
      "buffer": 0,
      "byteOffset": 4838928,
      "byteLength": 73344,
      "target": 34962
    },
    {
      "buffer": 0,
      "byteOffset": 4912272,
      "byteLength": 48896,
      "target": 34962
    },
    {
      "buffer": 0,
      "byteOffset": 4961168,
      "byteLength": 68496,
      "target": 34963
    },
    {
      "buffer": 0,
      "byteOffset": 5029664,
      "byteLength": 526044,
      "target": 34962
    },
    {
      "buffer": 0,
      "byteOffset": 5555708,
      "byteLength": 526044,
      "target": 34962
    },
    {
      "buffer": 0,
      "byteOffset": 6081752,
      "byteLength": 350696,
      "target": 34962
    },
    {
      "buffer": 0,
      "byteOffset": 6432448,
      "byteLength": 523296,
      "target": 34963
    }
  ],
  "buffers": [
    {
      "uri": "nycroads-r0-demo-T18N-0588-4510.bin",
      "byteLength": 6955744
    }
  ],
  "extensionsUsed": [
    "ASOBO_material_draw_order",
    "ASOBO_material_invisible",
    "ASOBO_tags"
  ],
  "materials": [
    {
      "pbrMetallicRoughness": {
        "baseColorFactor": [
          0.18,
          0.18,
          0.19,
          1
        ],
        "metallicFactor": 0.0,
        "roughnessFactor": 0.85
      },
      "emissiveFactor": [
        0.0,
        0.0,
        0.0
      ],
      "alphaMode": "OPAQUE",
      "doubleSided": false,
      "name": "asphalt"
    },
    {
      "pbrMetallicRoughness": {
        "baseColorFactor": [
          0.2,
          0.19,
          0.18,
          1
        ],
        "metallicFactor": 0.0,
        "roughnessFactor": 0.95
      },
      "emissiveFactor": [
        0.0,
        0.0,
        0.0
      ],
      "alphaMode": "OPAQUE",
      "doubleSided": false,
      "name": "asphalt_skirt"
    },
    {
      "pbrMetallicRoughness": {
        "baseColorFactor": [
          0.62,
          0.61,
          0.58,
          1
        ],
        "metallicFactor": 0.0,
        "roughnessFactor": 0.8
      },
      "emissiveFactor": [
        0.0,
        0.0,
        0.0
      ],
      "alphaMode": "OPAQUE",
      "doubleSided": false,
      "name": "concrete_barrier"
    },
    {
      "pbrMetallicRoughness": {
        "baseColorFactor": [
          0.42,
          0.41,
          0.4,
          1
        ],
        "metallicFactor": 0.0,
        "roughnessFactor": 0.8
      },
      "emissiveFactor": [
        0.0,
        0.0,
        0.0
      ],
      "alphaMode": "OPAQUE",
      "doubleSided": false,
      "name": "concrete_deck"
    },
    {
      "pbrMetallicRoughness": {
        "baseColorFactor": [
          0.45,
          0.44,
          0.42,
          1
        ],
        "metallicFactor": 0.0,
        "roughnessFactor": 0.85
      },
      "emissiveFactor": [
        0.0,
        0.0,
        0.0
      ],
      "alphaMode": "OPAQUE",
      "doubleSided": false,
      "name": "concrete_deck_edge"
    },
    {
      "pbrMetallicRoughness": {
        "baseColorFactor": [
          0.35,
          0.34,
          0.33,
          1
        ],
        "metallicFactor": 0.0,
        "roughnessFactor": 0.9
      },
      "emissiveFactor": [
        0.0,
        0.0,
        0.0
      ],
      "alphaMode": "OPAQUE",
      "doubleSided": false,
      "name": "concrete_deck_underside"
    },
    {
      "extensions": {
        "ASOBO_material_draw_order": {
          "drawOrderOffset": 1
        }
      },
      "pbrMetallicRoughness": {
        "baseColorFactor": [
          0.85,
          0.85,
          0.82,
          1
        ],
        "metallicFactor": 0.0,
        "roughnessFactor": 0.6
      },
      "emissiveFactor": [
        0.0,
        0.0,
        0.0
      ],
      "alphaMode": "OPAQUE",
      "doubleSided": false,
      "name": "marking_white"
    },
    {
      "extensions": {
        "ASOBO_material_draw_order": {
          "drawOrderOffset": 1
        }
      },
      "pbrMetallicRoughness": {
        "baseColorFactor": [
          0.86,
          0.68,
          0.12,
          1
        ],
        "metallicFactor": 0.0,
        "roughnessFactor": 0.6
      },
      "emissiveFactor": [
        0.0,
        0.0,
        0.0
      ],
      "alphaMode": "OPAQUE",
      "doubleSided": false,
      "name": "marking_yellow"
    },
    {
      "extensions": {
        "ASOBO_material_invisible": {}
      },
      "pbrMetallicRoughness": {
        "baseColorFactor": [
          1.0,
          0.0,
          1.0,
          1
        ],
        "metallicFactor": 0.0,
        "roughnessFactor": 1.0
      },
      "emissiveFactor": [
        0.0,
        0.0,
        0.0
      ],
      "alphaMode": "OPAQUE",
      "doubleSided": false,
      "name": "collision"
    }
  ],
  "meshes": [
    {
      "primitives": [
        {
          "attributes": {
            "POSITION": 0,
            "NORMAL": 1,
            "TEXCOORD_0": 2
          },
          "indices": 3,
          "mode": 4,
          "material": 0
        },
        {
          "attributes": {
            "POSITION": 4,
            "NORMAL": 5,
            "TEXCOORD_0": 6
          },
          "indices": 7,
          "mode": 4,
          "material": 1
        },
        {
          "attributes": {
            "POSITION": 8,
            "NORMAL": 9,
            "TEXCOORD_0": 10
          },
          "indices": 11,
          "mode": 4,
          "material": 2
        },
        {
          "attributes": {
            "POSITION": 12,
            "NORMAL": 13,
            "TEXCOORD_0": 14
          },
          "indices": 15,
          "mode": 4,
          "material": 3
        },
        {
          "attributes": {
            "POSITION": 16,
            "NORMAL": 17,
            "TEXCOORD_0": 18
          },
          "indices": 19,
          "mode": 4,
          "material": 4
        },
        {
          "attributes": {
            "POSITION": 20,
            "NORMAL": 21,
            "TEXCOORD_0": 22
          },
          "indices": 23,
          "mode": 4,
          "material": 5
        },
        {
          "attributes": {
            "POSITION": 24,
            "NORMAL": 25,
            "TEXCOORD_0": 26
          },
          "indices": 27,
          "mode": 4,
          "material": 6
        },
        {
          "attributes": {
            "POSITION": 28,
            "NORMAL": 29,
            "TEXCOORD_0": 30
          },
          "indices": 31,
          "mode": 4,
          "material": 7
        }
      ],
      "name": "visual"
    },
    {
      "primitives": [
        {
          "attributes": {
            "POSITION": 32,
            "NORMAL": 33,
            "TEXCOORD_0": 34
          },
          "indices": 35,
          "mode": 4,
          "material": 8
        }
      ],
      "name": "collision"
    }
  ],
  "nodes": [
    {
      "mesh": 0,
      "name": "visual"
    },
    {
      "extensions": {
        "ASOBO_tags": {
          "tags": [
            "Collision",
            "Road"
          ]
        }
      },
      "mesh": 1,
      "name": "collision"
    }
  ],
  "scene": 0,
  "scenes": [
    {
      "nodes": [
        0,
        1
      ]
    }
  ]
}