{
  "accessors": [
    {
      "bufferView": 0,
      "byteOffset": 0,
      "componentType": 5126,
      "normalized": false,
      "count": 856,
      "type": "VEC3",
      "max": [
        505.4015197753906,
        2.3616909980773926,
        -128.7738800048828
      ],
      "min": [
        326.44635009765625,
        -0.024209676310420036,
        -495.8130187988281
      ]
    },
    {
      "bufferView": 1,
      "byteOffset": 0,
      "componentType": 5126,
      "normalized": false,
      "count": 856,
      "type": "VEC3"
    },
    {
      "bufferView": 2,
      "byteOffset": 0,
      "componentType": 5126,
      "normalized": false,
      "count": 856,
      "type": "VEC2"
    },
    {
      "bufferView": 3,
      "byteOffset": 0,
      "componentType": 5125,
      "normalized": false,
      "count": 850,
      "type": "SCALAR"
    },
    {
      "bufferView": 4,
      "byteOffset": 0,
      "componentType": 5126,
      "normalized": false,
      "count": 354,
      "type": "VEC3",
      "max": [
        482.90484619140625,
        2.2710962295532227,
        -303.1759338378906
      ],
      "min": [
        326.4463195800781,
        0.532035231590271,
        -417.5008239746094
      ]
    },
    {
      "bufferView": 5,
      "byteOffset": 0,
      "componentType": 5126,
      "normalized": false,
      "count": 354,
      "type": "VEC3"
    },
    {
      "bufferView": 6,
      "byteOffset": 0,
      "componentType": 5126,
      "normalized": false,
      "count": 354,
      "type": "VEC2"
    },
    {
      "bufferView": 7,
      "byteOffset": 0,
      "componentType": 5125,
      "normalized": false,
      "count": 350,
      "type": "SCALAR"
    },
    {
      "bufferView": 8,
      "byteOffset": 0,
      "componentType": 5126,
      "normalized": false,
      "count": 924,
      "type": "VEC3",
      "max": [
        495.45208740234375,
        2.397780418395996,
        -128.8670654296875
      ],
      "min": [
        326.5570983886719,
        0.9664572477340698,
        -427.8287353515625
      ]
    },
    {
      "bufferView": 9,
      "byteOffset": 0,
      "componentType": 5126,
      "normalized": false,
      "count": 924,
      "type": "VEC3"
    },
    {
      "bufferView": 10,
      "byteOffset": 0,
      "componentType": 5126,
      "normalized": false,
      "count": 924,
      "type": "VEC2"
    },
    {
      "bufferView": 11,
      "byteOffset": 0,
      "componentType": 5125,
      "normalized": false,
      "count": 868,
      "type": "SCALAR"
    },
    {
      "bufferView": 12,
      "byteOffset": 0,
      "componentType": 5126,
      "normalized": false,
      "count": 508,
      "type": "VEC3",
      "max": [
        490.2497253417969,
        1.9961423873901367,
        -130.9208221435547
      ],
      "min": [
        327.3485412597656,
        0.9667964577674866,
        -426.3047790527344
      ]
    },
    {
      "bufferView": 13,
      "byteOffset": 0,
      "componentType": 5126,
      "normalized": false,
      "count": 508,
      "type": "VEC3"
    },
    {
      "bufferView": 14,
      "byteOffset": 0,
      "componentType": 5126,
      "normalized": false,
      "count": 508,
      "type": "VEC2"
    },
    {
      "bufferView": 15,
      "byteOffset": 0,
      "componentType": 5125,
      "normalized": false,
      "count": 468,
      "type": "SCALAR"
    },
    {
      "bufferView": 16,
      "byteOffset": 0,
      "componentType": 5126,
      "normalized": false,
      "count": 856,
      "type": "VEC3",
      "max": [
        505.4015197753906,
        2.3616909980773926,
        -128.7738800048828
      ],
      "min": [
        326.44635009765625,
        -0.024209676310420036,
        -495.8130187988281
      ]
    },
    {
      "bufferView": 17,
      "byteOffset": 0,
      "componentType": 5126,
      "normalized": false,
      "count": 856,
      "type": "VEC3"
    },
    {
      "bufferView": 18,
      "byteOffset": 0,
      "componentType": 5126,
      "normalized": false,
      "count": 856,
      "type": "VEC2"
    },
    {
      "bufferView": 19,
      "byteOffset": 0,
      "componentType": 5125,
      "normalized": false,
      "count": 850,
      "type": "SCALAR"
    }
  ],
  "asset": {
    "generator": "nycroads",
    "version": "2.0"
  },
  "bufferViews": [
    {
      "buffer": 0,
      "byteOffset": 0,
      "byteLength": 10272,
      "target": 34962
    },
    {
      "buffer": 0,
      "byteOffset": 10272,
      "byteLength": 10272,
      "target": 34962
    },
    {
      "buffer": 0,
      "byteOffset": 20544,
      "byteLength": 6848,
      "target": 34962
    },
    {
      "buffer": 0,
      "byteOffset": 27392,
      "byteLength": 10200,
      "target": 34963
    },
    {
      "buffer": 0,
      "byteOffset": 37592,
      "byteLength": 4248,
      "target": 34962
    },
    {
      "buffer": 0,
      "byteOffset": 41840,
      "byteLength": 4248,
      "target": 34962
    },
    {
      "buffer": 0,
      "byteOffset": 46088,
      "byteLength": 2832,
      "target": 34962
    },
    {
      "buffer": 0,
      "byteOffset": 48920,
      "byteLength": 4200,
      "target": 34963
    },
    {
      "buffer": 0,
      "byteOffset": 53120,
      "byteLength": 11088,
      "target": 34962
    },
    {
      "buffer": 0,
      "byteOffset": 64208,
      "byteLength": 11088,
      "target": 34962
    },
    {
      "buffer": 0,
      "byteOffset": 75296,
      "byteLength": 7392,
      "target": 34962
    },
    {
      "buffer": 0,
      "byteOffset": 82688,
      "byteLength": 10416,
      "target": 34963
    },
    {
      "buffer": 0,
      "byteOffset": 93104,
      "byteLength": 6096,
      "target": 34962
    },
    {
      "buffer": 0,
      "byteOffset": 99200,
      "byteLength": 6096,
      "target": 34962
    },
    {
      "buffer": 0,
      "byteOffset": 105296,
      "byteLength": 4064,
      "target": 34962
    },
    {
      "buffer": 0,
      "byteOffset": 109360,
      "byteLength": 5616,
      "target": 34963
    },
    {
      "buffer": 0,
      "byteOffset": 114976,
      "byteLength": 10272,
      "target": 34962
    },
    {
      "buffer": 0,
      "byteOffset": 125248,
      "byteLength": 10272,
      "target": 34962
    },
    {
      "buffer": 0,
      "byteOffset": 135520,
      "byteLength": 6848,
      "target": 34962
    },
    {
      "buffer": 0,
      "byteOffset": 142368,
      "byteLength": 10200,
      "target": 34963
    }
  ],
  "buffers": [
    {
      "uri": "nycroads-r0-demo-T18N-0589-4511.bin",
      "byteLength": 152568
    }
  ],
  "extensionsUsed": [
    "ASOBO_material_draw_order",
    "ASOBO_material_invisible",
    "ASOBO_tags"
  ],
  "materials": [
    {
      "pbrMetallicRoughness": {
        "baseColorFactor": [
          0.18,
          0.18,
          0.19,
          1
        ],
        "metallicFactor": 0.0,
        "roughnessFactor": 0.85
      },
      "emissiveFactor": [
        0.0,
        0.0,
        0.0
      ],
      "alphaMode": "OPAQUE",
      "doubleSided": false,
      "name": "asphalt"
    },
    {
      "pbrMetallicRoughness": {
        "baseColorFactor": [
          0.2,
          0.19,
          0.18,
          1
        ],
        "metallicFactor": 0.0,
        "roughnessFactor": 0.95
      },
      "emissiveFactor": [
        0.0,
        0.0,
        0.0
      ],
      "alphaMode": "OPAQUE",
      "doubleSided": false,
      "name": "asphalt_skirt"
    },
    {
      "extensions": {
        "ASOBO_material_draw_order": {
          "drawOrderOffset": 1
        }
      },
      "pbrMetallicRoughness": {
        "baseColorFactor": [
          0.85,
          0.85,
          0.82,
          1
        ],
        "metallicFactor": 0.0,
        "roughnessFactor": 0.6
      },
      "emissiveFactor": [
        0.0,
        0.0,
        0.0
      ],
      "alphaMode": "OPAQUE",
      "doubleSided": false,
      "name": "marking_white"
    },
    {
      "extensions": {
        "ASOBO_material_draw_order": {
          "drawOrderOffset": 1
        }
      },
      "pbrMetallicRoughness": {
        "baseColorFactor": [
          0.86,
          0.68,
          0.12,
          1
        ],
        "metallicFactor": 0.0,
        "roughnessFactor": 0.6
      },
      "emissiveFactor": [
        0.0,
        0.0,
        0.0
      ],
      "alphaMode": "OPAQUE",
      "doubleSided": false,
      "name": "marking_yellow"
    },
    {
      "extensions": {
        "ASOBO_material_invisible": {}
      },
      "pbrMetallicRoughness": {
        "baseColorFactor": [
          1.0,
          0.0,
          1.0,
          1
        ],
        "metallicFactor": 0.0,
        "roughnessFactor": 1.0
      },
      "emissiveFactor": [
        0.0,
        0.0,
        0.0
      ],
      "alphaMode": "OPAQUE",
      "doubleSided": false,
      "name": "collision"
    }
  ],
  "meshes": [
    {
      "primitives": [
        {
          "attributes": {
            "POSITION": 0,
            "NORMAL": 1,
            "TEXCOORD_0": 2
          },
          "indices": 3,
          "mode": 4,
          "material": 0
        },
        {
          "attributes": {
            "POSITION": 4,
            "NORMAL": 5,
            "TEXCOORD_0": 6
          },
          "indices": 7,
          "mode": 4,
          "material": 1
        },
        {
          "attributes": {
            "POSITION": 8,
            "NORMAL": 9,
            "TEXCOORD_0": 10
          },
          "indices": 11,
          "mode": 4,
          "material": 2
        },
        {
          "attributes": {
            "POSITION": 12,
            "NORMAL": 13,
            "TEXCOORD_0": 14
          },
          "indices": 15,
          "mode": 4,
          "material": 3
        }
      ],
      "name": "visual"
    },
    {
      "primitives": [
        {
          "attributes": {
            "POSITION": 16,
            "NORMAL": 17,
            "TEXCOORD_0": 18
          },
          "indices": 19,
          "mode": 4,
          "material": 4
        }
      ],
      "name": "collision"
    }
  ],
  "nodes": [
    {
      "mesh": 0,
      "name": "visual"
    },
    {
      "extensions": {
        "ASOBO_tags": {
          "tags": [
            "Collision",
            "Road"
          ]
        }
      },
      "mesh": 1,
      "name": "collision"
    }
  ],
  "scene": 0,
  "scenes": [
    {
      "nodes": [
        0,
        1
      ]
    }
  ]
}